<?xml version="1.0" encoding="utf-8"?>
<!-- Generator: Adobe Illustrator 21.1.0, SVG Export Plug-In . SVG Version: 6.00 Build 0)  -->
<svg version="1.1" id="Capa_1" xmlns="http://www.w3.org/2000/svg" xmlns:xlink="http://www.w3.org/1999/xlink" x="0px" y="0px"
	 viewBox="0 0 285 388.3" style="enable-background:new 0 0 285 388.3;" xml:space="preserve">
<style type="text/css">
	.st0{opacity:0.22;}
	.st1{fill:#444444;}
	.st2{fill:#444444;stroke:#A87540;stroke-width:7.0647;stroke-miterlimit:10;}
	.st3{fill:#444444;stroke:#A87540;stroke-width:6.3046;stroke-miterlimit:10;}
	.st4{fill:#444444;stroke:#A87540;stroke-width:7.5674;stroke-miterlimit:10;}
	.st5{fill:#54CF54;}
	.st6{fill:#15A219;}
	.st7{fill:#77ED49;}
	.st8{fill:#70CF48;}
	.st9{fill:#FFD730;}
	.st10{fill:#E9BD07;}
	.st11{fill:#FFE370;}
	.st12{fill:none;stroke:#A87540;stroke-width:7.0647;stroke-miterlimit:10;}
	.st13{fill:none;stroke:#A87540;stroke-width:6.3046;stroke-miterlimit:10;}
	.st14{fill:none;stroke:#A87540;stroke-width:7.5674;stroke-miterlimit:10;}
</style>
<g>
	<g class="st0">
		<path class="st1" d="M275.4,16.7c0,0,31.2,96.5-87.7,116.4l0,0C174.1,13.3,275.4,16.7,275.4,16.7L275.4,16.7z"/>
		<path class="st1" d="M197.6,116.8c0,0,12.4-60,68.7-89.8C266.3,27,226.7,56.2,197.6,116.8z"/>
		<g>
			<path class="st1" d="M200.1,123.4c0.2,0,0.4-0.1,0.5-0.1C147.9-43.9,15.3,20.5,15.2,20.5c0,0,14.4,133.6,163.5,107.5
				c10.9,24.8-1.9,38.7-3.5,40.4l7.5,7.7l7.4,7.8C199.1,175.3,211,152.8,200.1,123.4z"/>
			<polygon class="st1" points="200.6,123.3 200.6,123.3 200.6,123.3 			"/>
			<polygon class="st1" points="15.2,20.5 15.2,20.5 15.2,20.5 			"/>
		</g>
		<path class="st1" d="M175.2,112.3c0,0-88.9-5.7-143.3-80.8C32,31.6,81.9,82.7,175.2,112.3z"/>
		<g>
			<path class="st1" d="M206.6,330.3c-61.7,71.8-138.3,53.1-146.5,41.9c-9.2-12.6-41.7-73.3-5.1-142.5
				c39.9-75.4,129.3-96.7,159.1-67.3C244.8,192.6,262.2,265.6,206.6,330.3z"/>
		</g>
		<g>
			<path class="st1" d="M205.7,166.5c0,0,14.3,172.1-137.5,201.6c0,0,58-5.1,89.6-28.5C213,298.7,237.6,231,205.7,166.5z"/>
		</g>
		<g>
			<path class="st1" d="M60.4,322.8c0,0-15.4-113.2,109.9-157.8C170.7,166.7,98.8,226.4,60.4,322.8z"/>
		</g>
		<path class="st2" d="M93.7,190.8c0,0-13.3,60.5,50,34.6"/>
		<line class="st2" x1="93.4" y1="207" x2="74.9" y2="213.5"/>
		<line class="st3" x1="102.1" y1="227.4" x2="93.5" y2="238.8"/>
		<line class="st2" x1="131.8" y1="230.8" x2="133.7" y2="249.3"/>
		<path class="st2" d="M172.3,249.7c0,0-10.8,53.4,43.8,30.9"/>
		<line class="st2" x1="171.3" y1="268.1" x2="157.2" y2="274.5"/>
		<line class="st2" x1="183.6" y1="284.2" x2="174.9" y2="301.1"/>
		<line class="st2" x1="203.7" y1="284.2" x2="207" y2="301.3"/>
		<path class="st4" d="M109.2,289.6c0,0-2.1,27.3,24.6,17"/>
	</g>
	<g>
		<path class="st5" d="M268.8,13.4c0,0,31.2,96.5-87.7,116.4l0,0C167.5,10,268.8,13.4,268.8,13.4L268.8,13.4z"/>
		<path class="st6" d="M191,113.5c0,0,12.4-60,68.7-89.8C259.7,23.7,220.1,52.8,191,113.5z"/>
		<g>
			<path class="st7" d="M193.5,120.1c0.2,0,0.4-0.1,0.5-0.1C141.3-47.2,8.7,17.2,8.6,17.2c0,0,14.4,133.6,163.5,107.5
				c10.9,24.8-1.9,38.7-3.5,40.4l7.5,7.7l7.4,7.8C192.5,172,204.4,149.5,193.5,120.1z"/>
			<polygon class="st7" points="194,120 194,120 194,120 			"/>
			<polygon class="st7" points="8.6,17.2 8.6,17.2 8.6,17.2 			"/>
		</g>
		<path class="st8" d="M168.6,109c0,0-88.9-5.7-143.3-80.8C25.4,28.2,75.3,79.4,168.6,109z"/>
		<g>
			<path class="st9" d="M200,327c-61.7,71.8-138.3,53.1-146.5,41.9c-9.2-12.6-41.7-73.3-5.1-142.5c39.9-75.4,129.3-96.7,159.1-67.3
				C238.2,189.3,255.6,262.3,200,327z"/>
		</g>
		<g>
			<path class="st10" d="M199.1,163.2c0,0,14.3,172.1-137.5,201.6c0,0,58-5.1,89.6-28.5C206.4,295.4,231,227.7,199.1,163.2z"/>
		</g>
		<g>
			<path class="st11" d="M53.8,319.5c0,0-15.4-113.2,109.9-157.8C164.1,163.4,92.2,223.1,53.8,319.5z"/>
		</g>
		<path class="st12" d="M87.1,187.5c0,0-13.3,60.5,50,34.6"/>
		<line class="st12" x1="86.8" y1="203.7" x2="68.3" y2="210.2"/>
		<line class="st13" x1="95.5" y1="224.1" x2="86.9" y2="235.5"/>
		<line class="st12" x1="125.1" y1="227.5" x2="127.1" y2="246"/>
		<path class="st12" d="M165.7,246.3c0,0-10.8,53.4,43.8,30.9"/>
		<line class="st12" x1="164.6" y1="264.8" x2="150.6" y2="271.2"/>
		<line class="st12" x1="176.9" y1="280.9" x2="168.3" y2="297.8"/>
		<line class="st12" x1="197.1" y1="280.9" x2="200.4" y2="298"/>
		<path class="st14" d="M102.5,286.3c0,0-2.1,27.3,24.6,17"/>
	</g>
</g>
</svg>
